# xmcd
#
# Track frame offsets: 
#        150
#        12887
#        26777
#        38197
#        53117
#        68902
#        90675
#        103985
#        118760
#        130840
#        147365
#        162357
#
# Disc length: 2368 seconds
#
# Revision: 0
# Processed by: cddbd v1.5.2PL0 Copyright (c) Steve Scherf et al.
# Submitted via: ExactAudioCopy v0.99pb5
#
DISCID=a9093e0c
DTITLE=Cletus Black - Black Ice
DYEAR=2001
DGENRE=Country
TTITLE0=Mumblin' to Myself
TTITLE1=Byo Blues
TTITLE2=Let It Go
TTITLE3=Black Ice
TTITLE4=Don't Want No Trouble
TTITLE5=Creole Witch
TTITLE6=Take It on Faith
TTITLE7=He's Got a Harley
TTITLE8=Carrying Love Through
TTITLE9=Calling for Love
TTITLE10=Too Many Times
TTITLE11=Holding My Own
EXTD=
EXTT0=
EXTT1=
EXTT2=
EXTT3=
EXTT4=
EXTT5=
EXTT6=
EXTT7=
EXTT8=
EXTT9=
EXTT10=
EXTT11=
PLAYORDER=
